<?xml version="1.0" encoding="UTF-8" standalone="no"?>
<svg
   xmlns="http://www.w3.org/2000/svg"
   height="100px"
   width="100px"
   fill="#000000"
   version="1.1"
   x="0px"
   y="0px"
   viewBox="0 0 100 100"
   style="enable-background:new 0 0 100 100;">
    <path d="M 79.3,20.7 C 63.1,4.5 36.8,4.5 20.6,20.7 4.4,36.9 4.4,63.2 20.6,79.4 c 16.2,16.2 42.5,16.2 58.7,0 16.2,-16.2 16.2,-42.6 0,-58.7 z M 68.8,52.4 c -0.6,0.6 -1.5,1 -2.4,1 l -32.8,0 c -1.9,0 -3.4,-1.5 -3.4,-3.4 0,-1.9 1.5,-3.4 3.4,-3.4 h 32.8 c 1.9,0 3.4,1.5 3.4,3.4 -0.1,0.9 -0.4,1.8 -1,2.4 z"/>
</svg>
