<svg xmlns="http://www.w3.org/2000/svg" viewBox="0 0 96 96" x="0px" y="0px"><title>Artboard 24</title><g><path d="M46,70.4841V20.5706c0-3.906-3.73-6.0706-6-6.0706H14a2,2,0,0,0-2,2v50H36.0471C39.0251,66.5,43.3882,67.2842,46,70.4841ZM22,26.5H36a2,2,0,0,1,0,4H22a2,2,0,0,1,0-4Zm0,8H36a2,2,0,0,1,0,4H22a2,2,0,0,1,0-4Zm0,8H36a2,2,0,0,1,0,4H22a2,2,0,0,1,0-4Zm0,12a2,2,0,0,1,0-4H36a2,2,0,0,1,0,4Z"></path><path d="M90,22.5H88v48H62c-5.3413,0-10.8943,2.18-14,6.9883C44.8943,72.68,39.3413,70.5,34,70.5H8v-48H6a1.9988,1.9988,0,0,0-2,2v48a2,2,0,0,0,2,2H26c10.9141,0,14.4316-.7578,20.4,7.1992a1.998,1.998,0,0,0,3.1992,0C55.5684,73.7422,59.0859,74.5,70,74.5H90a2,2,0,0,0,2-2v-48A1.9988,1.9988,0,0,0,90,22.5Z"></path><path d="M84,66.5v-50a2,2,0,0,0-2-2H56c-2.27,0-6,2.1646-6,6.0706V70.4841c2.6118-3.2,6.9749-3.9841,9.9529-3.9841Zm-17-38a2,2,0,1,1-2,2A2,2,0,0,1,67,28.5Zm-2,10a2,2,0,0,1,4,0v12a2,2,0,0,1-4,0Z"></path></g></svg>