<svg xmlns="http://www.w3.org/2000/svg" xmlns:xlink="http://www.w3.org/1999/xlink" version="1.1" x="0px" y="0px" viewBox="0 0 32 32" style="enable-background:new 0 0 32 32;" xml:space="preserve"><g><path d="M28.5,11l1.5-0.3l-0.1-1.9l-1.5-0.1c-0.1-0.2-0.2-0.5-0.3-0.7l0.8-1.3l-1.4-1.2l-1.2,1c-0.2-0.1-0.5-0.2-0.7-0.2l-0.3-1.5   l-1.9,0.1l-0.1,1.5c-0.2,0.1-0.5,0.2-0.7,0.3l-1.3-0.8l-1.2,1.4l1,1.2C21,8.7,20.9,9,20.8,9.2l-1.5,0.3l0.1,1.9l1.5,0.1   c0.1,0.2,0.2,0.5,0.3,0.7l-0.8,1.3l1.4,1.2l1.2-1c0.2,0.1,0.5,0.2,0.7,0.2l0.3,1.5l1.9-0.1l0.1-1.5c0.2-0.1,0.5-0.2,0.7-0.3   l1.3,0.8l1.2-1.4l-1-1.2C28.3,11.5,28.4,11.3,28.5,11z M24.8,11.8c-0.9,0.1-1.8-0.7-1.8-1.6c-0.1-0.9,0.7-1.8,1.6-1.8   c0.9-0.1,1.8,0.7,1.8,1.6C26.4,11,25.7,11.8,24.8,11.8z"></path><path d="M26.4,19.1l1.1-1.4l-1.5-1.5l-1.4,1.1c-0.3-0.1-0.5-0.2-0.8-0.3l-0.2-1.7h-2.1l-0.2,1.7c-0.3,0.1-0.5,0.2-0.8,0.3L19,16.2   l-1.5,1.5l1.1,1.4c-0.1,0.3-0.2,0.5-0.3,0.8l-1.7,0.2v2.1l1.7,0.2c0.1,0.3,0.2,0.5,0.3,0.8l-1.1,1.4l1.5,1.5l1.4-1.1   c0.3,0.1,0.5,0.2,0.8,0.3l0.2,1.7h2.1l0.2-1.7c0.3-0.1,0.5-0.2,0.8-0.3l1.4,1.1l1.5-1.5l-1.1-1.4c0.1-0.3,0.2-0.5,0.3-0.8l1.7-0.2   v-2.1l-1.7-0.2C26.6,19.6,26.5,19.4,26.4,19.1z M22.4,23.2c-1.1,0-2-0.9-2-2s0.9-2,2-2c1.1,0,2,0.9,2,2S23.5,23.2,22.4,23.2z"></path><path d="M16,16.5c0.2-0.4,0.4-0.7,0.5-1.2L19,15l0-3.1l-2.5-0.4c-0.1-0.4-0.3-0.8-0.5-1.2l1.5-2l-2.1-2.2l-2,1.5   c-0.4-0.2-0.7-0.4-1.2-0.5L12,4.8l-3.1,0L8.6,7.3C8.2,7.4,7.8,7.5,7.4,7.7l-2-1.5L3.3,8.3l1.5,2c-0.2,0.4-0.4,0.7-0.5,1.2L2,11.8   v3.1l2.2,0.3c0.1,0.4,0.3,0.8,0.5,1.2l-1.5,2l2.1,2.2l2-1.5c0.4,0.2,0.7,0.4,1.2,0.5L8.8,22l3.1,0l0.4-2.5c0.4-0.1,0.8-0.3,1.2-0.5   l2,1.5l2.2-2.1L16,16.5z M10.4,16.2c-1.6,0-2.8-1.3-2.8-2.8c0-1.6,1.3-2.8,2.8-2.8c1.6,0,2.8,1.3,2.8,2.8   C13.2,15,11.9,16.3,10.4,16.2z"></path></g></svg>