<?xml version="1.0" encoding="UTF-8" standalone="no"?>
<svg
   xmlns:dc="http://purl.org/dc/elements/1.1/"
   xmlns:cc="http://creativecommons.org/ns#"
   xmlns:rdf="http://www.w3.org/1999/02/22-rdf-syntax-ns#"
   xmlns:svg="http://www.w3.org/2000/svg"
   xmlns="http://www.w3.org/2000/svg"
   style="fill:#000000"
   id="svg4"
   viewBox="0 0 100 100"
   y="0px"
   x="0px"
   version="1.1"
   width="100"
   height="100">
  <metadata
     id="metadata10">
    <rdf:RDF>
      <cc:Work
         rdf:about="">
        <dc:format>image/svg+xml</dc:format>
        <dc:type
           rdf:resource="http://purl.org/dc/dcmitype/StillImage" />
        <dc:title></dc:title>
      </cc:Work>
    </rdf:RDF>
  </metadata>
  <defs
     id="defs8" />
  <path
     style="fill:#d40000"
     id="path2"
     d="m 87.337891,5 c -1.530087,0.016929 -3.055768,0.4939585 -4.351563,1.4296875 l -0.132812,-0.017578 -0.03711,0.1445312 c -0.260332,0.1993981 -0.511612,0.4185611 -0.75,0.65625 -1.791629,1.7863458 -2.49736,4.2439593 -2.11914,6.5605473 L 68.029297,24.355469 c 1.597916,1.162559 3.037346,2.327661 4.130859,3.417969 1.09348,1.090308 2.261792,2.523956 3.427735,4.117187 L 86.199219,20.007812 c 2.32343,0.377144 4.790402,-0.32495 6.582031,-2.111328 0.238388,-0.237689 0.456265,-0.488478 0.65625,-0.748046 l 0.144531,-0.03711 -0.01563,-0.132812 C 95.711469,14.025346 95.449754,9.8735733 92.78125,7.2128906 91.280235,5.7162565 89.305145,4.9782341 87.337891,5 Z m 3.173828,5.189453 c 0.735442,0 1.470125,0.27841 2.03125,0.837891 1.122251,1.118961 1.122251,2.93374 0,4.052734 -1.12225,1.118961 -2.942203,1.118961 -4.064453,0 -1.122283,-1.118994 -1.122283,-2.933773 0,-4.052734 0.561125,-0.559481 1.297761,-0.837891 2.033203,-0.837891 z m -38.089844,6.007813 -0.0918,0.08984 -4.74414,4.730469 -1.386719,1.382813 C 60.158767,27.8728 72.191832,40.307346 77.548825,53.6582 l 6.222656,-6.205078 c 0,0 -6.996249,-13.322852 -12.316406,-18.726563 -0.0418,-0.04262 -0.08528,-0.08345 -0.126953,-0.125 C 65.99324,23.282313 52.421875,16.197266 52.421875,16.197266 Z M 57.212891,29.980469 24.378906,60.90625 5,95 39.193359,75.677734 70.150391,43.001953 C 68.288388,40.444616 66.198019,38.005572 63.921875,35.740234 61.831347,33.659545 59.583084,31.72605 57.212891,29.980469 Z m 3.734375,8.861328 c 0.10272,0.01331 0.190753,0.05228 0.257812,0.119141 0.268268,0.267513 0.0901,0.876181 -0.40039,1.365234 L 28.78125,72.253906 c -0.490523,0.489051 -1.100873,0.667905 -1.369141,0.400391 -0.268235,-0.267449 -0.0901,-0.878135 0.400391,-1.367188 L 59.833984,39.359375 c 0.367869,-0.366817 0.805122,-0.557501 1.113282,-0.517578 z" />
</svg>
