<?xml version="1.0" encoding="UTF-8" standalone="no"?>
<svg
   xmlns:dc="http://purl.org/dc/elements/1.1/"
   xmlns:cc="http://creativecommons.org/ns#"
   xmlns:rdf="http://www.w3.org/1999/02/22-rdf-syntax-ns#"
   xmlns:svg="http://www.w3.org/2000/svg"
   xmlns="http://www.w3.org/2000/svg"
   style="fill:#000080"
   id="svg12"
   version="1.1"
   y="0px"
   x="0px"
   viewBox="0 0 100 100"
   data-name="Layer 1"
   width="100"
   height="100">
  <metadata
     id="metadata18">
    <rdf:RDF>
      <cc:Work
         rdf:about="">
        <dc:format>image/svg+xml</dc:format>
        <dc:type
           rdf:resource="http://purl.org/dc/dcmitype/StillImage" />
        <dc:title>HITAM</dc:title>
      </cc:Work>
    </rdf:RDF>
  </metadata>
  <defs
     id="defs16" />
  <title
     id="title2">HITAM</title>
  <path
     id="path4"
     d="M 37,53.61 A 83.09,83.09 0 0 1 32.9,68 H 67.1 A 82.27,82.27 0 0 1 61.58,41 H 38.42 A 83.16,83.16 0 0 1 37,53.61 Z" />
  <polygon
     id="polygon6"
     points="32.5,69 32.5,74 30,77 30,85 70,85 70,77 67.5,74 67.5,69 " />
  <path
     id="path8"
     d="M 38.07,24.06 38,23.64 a 1.45,1.45 0 0 0 0.07,0.42 z" />
  <path
     id="path10"
     d="m 60.5,15 v 8 h -5 v -8 h -11 v 8 h -5 v -8 h -7 v 19.64 l 6,5.36 h 23.1 l 6,-5.36 V 15 Z" />
</svg>
