<?xml version="1.0" encoding="UTF-8" standalone="no"?>
<svg
   xmlns="http://www.w3.org/2000/svg"
   xml:space="preserve"
   viewBox="0 0 100 100"
   y="0px"
   x="0px"
   version="1.1"
   width="100"
   height="100"><path
     style="fill:#d4aa00"
     id="path935"
     d="M 92.6,76.3 66.4,50 92.7,23.7 C 94,22.4 94,20.3 92.7,19 L 81,7.4 C 79.7,6.1 77.6,6.1 76.3,7.4 L 50,33.6 23.7,7.4 C 22.4,6.1 20.3,6.1 19,7.4 L 7.4,19 c -1.3,1.3 -1.3,3.4 0,4.7 L 33.6,50 7.4,76.3 c -1.3,1.3 -1.3,3.4 0,4.7 L 19,92.6 c 1.3,1.3 3.4,1.3 4.7,0 L 50,66.4 76.3,92.7 c 1.3,1.3 3.4,1.3 4.7,0 L 92.6,81 c 1.3,-1.3 1.3,-3.4 0,-4.7 z" /></svg>
