<?xml version="1.0" encoding="UTF-8" standalone="no"?>
<svg
   xmlns="http://www.w3.org/2000/svg"
   viewBox="0 0 100 100"
   y="0px"
   x="0px"
   version="1.1"
   width="100"
   height="100">
  <path
     style="display:inline;overflow:visible;visibility:visible;fill:#d40000"
     d="m 47,6.99997 v 3.125 C 27.33567,11.58757 11.57136,27.33967 10.09375,46.99993 H 6.9999995 v 5.99999 H 10.09375 C 11.5571,72.67012 27.32532,88.38502 47,89.84382 v 3.1562 h 6 v -3.1562 c 19.67469,-1.4588 35.442901,-17.1737 36.90625,-36.8439 H 93 V 46.99993 H 89.90625 C 88.42864,27.33967 72.66434,11.58757 53,10.12497 v -3.125 z m 3,8.9688 c 18.813159,0 34,15.218 34,34.03115 0,18.8132 -15.186841,34.0001 -34,34.0001 -18.81316,0 -34,-15.1869 -34,-34.0001 0,-18.81315 15.18684,-34.03115 34,-34.03115 z m 0,14.0312 c -11.010181,0 -20,8.9899 -20,19.99995 0,11.0103 8.989819,20.0001 20,20.0001 11.01018,0 20,-8.9898 20,-20.0001 C 70,38.98987 61.010179,29.99997 50,29.99997 Z m 0,6 c 7.767539,0 14,6.2325 14,13.99995 0,7.7677 -6.232461,14.0001 -14,14.0001 -7.76753,0 -14,-6.2324 -14,-14.0001 0,-7.76745 6.23247,-13.99995 14,-13.99995 z"
     marker="none"
     visibility="visible"
     display="inline"
     overflow="visible"/>
</svg>
