<svg xmlns="http://www.w3.org/2000/svg" xmlns:xlink="http://www.w3.org/1999/xlink" version="1.1" x="0px" y="0px" viewBox="0 0 100 100" style="enable-background:new 0 0 100 100;" xml:space="preserve"><g><path d="M91.351,46.23c0.738-3.133,0.215-6.354-1.473-9.07c-2.398-3.858-6.898-6.105-11.478-5.628   c-4.205,0.441-7.887,2.441-11.447,4.375c-0.797,0.433-1.591,0.865-2.387,1.276c-3.862,1.996-7.832,4.035-11.844,5.865   c2.638-3.383,5.46-6.688,8.216-9.903c0.583-0.68,1.186-1.354,1.789-2.03c2.7-3.021,5.491-6.145,6.887-10.137   c1.509-4.319,0.393-9.211-2.843-12.463C64.516,6.249,61.501,5,58.282,5c-2.403,0-5.937,0.767-8.498,2.872   C47.222,5.767,43.688,5,41.286,5c-3.218,0-6.233,1.249-8.49,3.516c-3.235,3.252-4.352,8.144-2.843,12.463   c1.396,3.992,4.188,7.115,6.887,10.136c0.604,0.677,1.207,1.351,1.789,2.03c2.679,3.125,5.424,6.333,7.995,9.612   c-3.79-1.753-7.538-3.687-11.191-5.575c-0.796-0.411-1.59-0.843-2.387-1.276c-3.561-1.934-7.242-3.933-11.447-4.375   c-4.577-0.477-9.078,1.771-11.478,5.628c-1.688,2.716-2.211,5.937-1.473,9.07c0.552,2.338,2.108,5.601,4.747,7.611   c-1.462,2.978-1.396,6.592-0.845,8.93c0.738,3.132,2.646,5.78,5.371,7.456c1.889,1.161,4.074,1.775,6.32,1.775   c2.31,0,4.544-0.647,6.463-1.87c3.564-2.274,5.964-5.708,8.285-9.03c0.52-0.744,1.037-1.484,1.564-2.208   c2.506-3.433,5.084-6.952,7.785-10.31c-0.012,0.263-0.027,0.566-0.043,0.909c-0.036,0.657-0.079,1.455-0.129,2.37   c-0.051,0.906-0.095,1.929-0.221,3.033c-0.112,1.106-0.2,2.307-0.404,3.555c-0.089,0.625-0.181,1.268-0.275,1.924   c-0.126,0.647-0.255,1.309-0.386,1.981c-0.119,0.674-0.268,1.351-0.454,2.025c-0.18,0.675-0.328,1.368-0.537,2.045   c-0.214,0.674-0.43,1.352-0.646,2.034c-0.23,0.675-0.509,1.332-0.759,1.998c-0.236,0.672-0.569,1.302-0.856,1.946   c-0.28,0.647-0.607,1.269-0.947,1.877c-0.636,1.235-1.384,2.388-2.114,3.494c-0.383,0.544-0.759,1.079-1.127,1.602   c-0.395,0.509-0.782,1.007-1.159,1.491c-0.777,0.957-1.526,1.851-2.256,2.661c-1.462,1.637-2.704,2.902-3.635,3.85   c-0.466,0.47-0.833,0.839-1.083,1.091c-0.241,0.242-0.403,0.408-0.363,0.364c-1.372,1.497-1.271,3.824,0.226,5.196   c1.497,1.372,3.824,1.271,5.196-0.226c0,0,0.487-0.593,1.34-1.63c0.83-1.023,2.098-2.586,3.487-4.476   c0.703-0.946,1.439-2.012,2.194-3.15c0.368-0.58,0.745-1.176,1.132-1.785c0.359-0.63,0.727-1.274,1.1-1.928   c0.709-1.331,1.429-2.721,2.023-4.196c0.319-0.727,0.62-1.467,0.871-2.23c0.257-0.759,0.558-1.506,0.755-2.284   c0.212-0.773,0.45-1.538,0.634-2.31c0.167-0.774,0.334-1.545,0.5-2.31c0.158-0.765,0.249-1.531,0.374-2.281   c0.13-0.751,0.221-1.494,0.281-2.226c0.071-0.73,0.141-1.448,0.21-2.15c0.034-0.701,0.067-1.387,0.099-2.055   c0.088-1.335,0.062-2.591,0.07-3.749c0.02-1.159-0.033-2.215-0.069-3.151c-0.037-0.927-0.07-1.735-0.096-2.401   c-0.029-0.623-0.053-1.114-0.069-1.466c2.867,3.526,5.597,7.242,8.243,10.867c0.527,0.724,1.045,1.464,1.564,2.208   c2.321,3.321,4.721,6.755,8.285,9.03c1.919,1.223,4.153,1.87,6.463,1.87c2.246,0,4.432-0.614,6.32-1.776   c2.726-1.676,4.633-4.324,5.371-7.455c0.552-2.338,0.617-5.953-0.845-8.931C89.242,51.831,90.799,48.568,91.351,46.23z"></path></g></svg>