<svg xmlns="http://www.w3.org/2000/svg" xmlns:xlink="http://www.w3.org/1999/xlink" version="1.1" x="0px" y="0px" viewBox="0 0 100 100" style="enable-background:new 0 0 100 100;" xml:space="preserve"><rect x="26.4" y="10.3" width="50.4" height="12"></rect><path d="M26.4,28.3v42.3l25.3,16.1l25.2-16.1V28.3H26.4z M59.9,60.8L55.5,64c-0.1,0.1-0.2,0.3-0.1,0.5l1.7,5.3  c0.1,0.4-0.3,0.7-0.6,0.5l-4.5-3.3c-0.1-0.1-0.3-0.1-0.5,0L47,70.2c-0.3,0.2-0.8-0.1-0.7-0.5l1.7-5.3c0.1-0.2,0-0.4-0.2-0.5  l-4.5-3.2c-0.3-0.2-0.2-0.8,0.2-0.8h5.5c0.2,0,0.4-0.1,0.4-0.3l1.7-5.3c0.1-0.4,0.7-0.4,0.8,0l1.7,5.3c0.1,0.2,0.2,0.3,0.4,0.3h5.5  C60.1,60,60.3,60.5,59.9,60.8z"></path></svg>