<?xml version="1.0" encoding="UTF-8"?>
<svg enable-background="new 0 0 2100 2100" version="1.1" viewBox="0 0 2100 2100" xml:space="preserve" xmlns="http://www.w3.org/2000/svg"><path d="m1791.1 146c9.4-9.4 12.2-23.5 7.1-35.8s-17-20.3-30.3-20.3h-885.1c-13 0-24.7 7.6-30 19.4l-435.3 973.2c-4.6 10.1-3.6 21.9 2.4 31.2s16.4 15 27.5 15h388l-332.8 819.1c-5.9 14.5-0.7 31.2 12.4 39.8 13.2 8.6 30.5 6.7 41.5-4.6l1108-1137.8c9.2-9.4 11.8-23.4 6.8-35.6-5.1-12.1-17-20.1-30.1-20.1l-492.4-2.3 642.3-641.2z"/></svg>
