<?xml version="1.0" encoding="UTF-8" standalone="no"?>
<svg
   xmlns="http://www.w3.org/2000/svg"
   id="svg20"
   style="fill:#000000"
   viewBox="0 0 100 100"
   y="0px"
   x="0px"
   version="1.1"
   width="100"
   height="100"
   style="fill:#000080">
    <path d="m 48.8,57.3 c -0.8,-0.5 -1.4,-1.2 -1.8,-2 -1.5,4.3 -3.6,9.6 -4.7,12.2 -2.9,0.1 -9.5,-0.6 -14.9,-1.5 -2.3,-0.4 -4.5,1.2 -4.8,3.5 -0.4,2.3 1.2,4.5 3.5,4.8 0.2,0 4.6,0.7 9.2,1.2 2.5,0.3 4.6,0.4 6.4,0.4 3.9,0 6.2,-0.8 7.4,-3 C 50,71.3 52.1,65.8 54,60.7 52.8,59.9 51.5,59 50,58 49.4,57.7 49,57.4 48.8,57.3 Z"/>
    <path d="M 97.4,43.5 C 96.9,41.8 95.2,40.7 93.4,41.2 92.6,41.4 86.7,43 83.1,44 83,43.6 82.8,43.2 82.7,42.9 81.3,38.8 79.2,32.6 73.8,30.5 72.6,30 69.8,28.8 68,28 60.4,24.7 47.2,28.3 45.5,28.9 44.6,29.3 42.6,30 36.8,41.4 36,43 36.7,45 38.3,45.8 c 0.5,0.2 1,0.4 1.5,0.4 1.2,0 2.3,-0.7 2.9,-1.8 1.9,-3.7 4.5,-8.2 5.5,-9.4 1.3,-0.4 4.4,-1.1 7.8,-1.5 -3.7,5.1 -7,13.2 -7.6,16.1 -0.8,4.2 1,5.6 1.6,6 1.4,1 14.2,9.5 16.1,11.5 -0.5,2.9 -3.1,11.4 -5.4,18.4 -0.7,2.2 0.5,4.6 2.7,5.3 0.4,0.1 0.9,0.2 1.3,0.2 1.8,0 3.4,-1.1 4,-2.9 2.2,-6.8 6,-18.6 5.9,-22 -0.1,-3.3 -3.1,-6.2 -9.7,-10.7 2.1,-5.2 5.6,-12.7 8.9,-16.6 1.2,1.8 2.1,4.3 2.7,6.2 1,2.8 1.6,4.8 3.5,5.7 0.5,0.3 1.1,0.4 1.6,0.4 0.4,0 0.9,-0.1 1.3,-0.2 1.4,-0.5 8,-2.3 12.1,-3.4 1.8,-0.5 2.8,-2.2 2.4,-4 z"/>
    <circle
     style="stroke-width:0.99996418"
     transform="rotate(-66.8142)"
     cx="12.572239"
     cy="75.164986"
     r="8.9996777" />
    <path d="m 10.8,34.5 h 20.7 c 1.4,0 2.5,-1.1 2.5,-2.5 0,-1.4 -1.1,-2.5 -2.5,-2.5 H 10.8 c -1.4,0 -2.5,1.1 -2.5,2.5 0,1.4 1.2,2.5 2.5,2.5 z"/>
    <path d="M 7.9,45 H 28.6 C 30,45 31.1,43.9 31.1,42.5 31.1,41.1 30,40 28.6,40 H 7.9 c -1.4,0 -2.5,1.1 -2.5,2.5 0,1.4 1.1,2.5 2.5,2.5 z"/>
    <path d="m 28.1,53 c 0,-1.4 -1.1,-2.5 -2.5,-2.5 H 5 c -1.4,0 -2.5,1.1 -2.5,2.5 0,1.4 1.1,2.5 2.5,2.5 h 20.7 c 1.3,0 2.4,-1.1 2.4,-2.5 z"/>
</svg>
