<?xml version="1.0" encoding="UTF-8"?>
<svg version="1.1" viewBox="0 0 100 100" xmlns="http://www.w3.org/2000/svg">
 <g transform="translate(0 -952.36)">
  <path d="m19 957.36c-1.1046 0-2 0.8954-2 2v86c0 1.1046 0.8954 2 2 2s2-0.8954 2-2v-86c0-1.1046-0.8954-2-2-2zm56.188 8c-4.0814 0.029-9.7812 0.9518-17.188 4.1562-19.186 8.3008-35-2.7812-35-2.7812v36.125c10.866 6.888 23.502 7.5952 35 2.7812 17.014-7.1235 25-2.75 25-2.75v-36.125s-2.565-1.4434-7.8125-1.4062z" color="#000000" overflow="visible" style="block-progression:tb;text-indent:0;text-transform:none"></path>
 </g>
</svg>
