<?xml version="1.0" encoding="UTF-8" standalone="no"?>
<svg
   xmlns:dc="http://purl.org/dc/elements/1.1/"
   xmlns:cc="http://creativecommons.org/ns#"
   xmlns:rdf="http://www.w3.org/1999/02/22-rdf-syntax-ns#"
   xmlns:svg="http://www.w3.org/2000/svg"
   xmlns="http://www.w3.org/2000/svg"
   id="svg18"
   xml:space="preserve"
   viewBox="0 0 100 100"
   y="0px"
   x="0px"
   version="1.1"
   width="100"
   height="100"><metadata
     id="metadata24"><rdf:RDF><cc:Work
         rdf:about=""><dc:format>image/svg+xml</dc:format><dc:type
           rdf:resource="http://purl.org/dc/dcmitype/StillImage" /><dc:title></dc:title></cc:Work></rdf:RDF></metadata><defs
     id="defs22" /><path
     style="fill:#000080"
     id="path12"
     d="M 95,65.9 65.2,16 C 62,10.6 56.3,7.4 50,7.4 43.7,7.4 38,10.6 34.8,16 L 5,65.9 c -3.3,5.5 -3.4,12.2 -0.2,17.8 3.2,5.6 8.9,9 15.4,9 h 59.6 c 6.5,0 12.2,-3.3 15.4,-9 C 98.3,78.1 98.3,71.4 95,65.9 Z M 50,77.6 c -3.3,0 -5.9,-2.6 -5.9,-5.9 0,-3.2 2.6,-5.9 5.9,-5.9 3.3,0 5.9,2.6 5.9,5.9 0,3.3 -2.6,5.9 -5.9,5.9 z m 6.3,-42.5 -1.9,22.4 c -0.1,1.2 -0.6,2.2 -1.5,2.9 -0.8,0.7 -1.8,1 -2.8,1 -0.1,0 -0.3,0 -0.4,0 -2.1,-0.2 -3.8,-1.8 -3.9,-3.9 L 43.9,35.1 c -0.1,-1.7 0.4,-3.3 1.4,-4.6 1.1,-1.3 2.6,-2.1 4.3,-2.2 1.7,-0.1 3.3,0.4 4.6,1.4 1.3,1.1 2.1,2.6 2.2,4.3 -0.1,0.4 -0.1,0.8 -0.1,1.1 z" /></svg>