<?xml version="1.0" encoding="UTF-8" standalone="no"?>
<svg
   xmlns="http://www.w3.org/2000/svg"
   id="svg12"
   version="1.1"
   y="0px"
   x="0px"
   viewBox="0 0 6.82666 6.82666"
   xml:space="preserve"
   width="100"
   height="100">
    <path style="fill:#ff6600;fill-rule:nonzero"
       d="M 2.34728,5.83017 1.4685,5.8720125 c -0.035051,0 -0.065354,-0.020335 -0.079756,-0.04985 l -0.812094,-1.74259 0.964681,0.67798 -0.653287,-1.94856 1.02624,0.994075 -0.107118,-2.38821 1.2684,1.8767 0.124067,-1.17128 0.375567,1.01869 0.681295,-2.2709 0.062378,2.5824 0.569579,-0.658165 -0.058079,0.915642 1.41295,-1.37646 -0.962028,2.84366 0.917799,-0.340902 -0.580406,0.993697 2.874e-4,1.693e-4 c -0.016697,0.028532 -0.046882,0.044284 -0.077736,0.043902 l -0.968346,-0.023472 0.177303,-1.06591 -0.733287,0.652681 -0.11102,-0.773906 -0.128571,0.416602 -0.263181,-0.41439 -0.064902,0.510394 -0.619358,-0.828535 -0.020937,1.17999 -0.567335,-0.396386 0.105681,0.701091 z"/>
</svg>
