<svg xmlns="http://www.w3.org/2000/svg" xmlns:xlink="http://www.w3.org/1999/xlink" version="1.1" x="0px" y="0px" viewBox="0 0 36 36" style="enable-background:new 0 0 36 36;" xml:space="preserve"><path d="M28.69,31.5v-3.38c0-4.11-2.3-7.79-6.01-9.6c-0.46-0.22-0.93-0.42-1.43-0.57c2.31-1.29,3.8-3.76,3.8-6.44  c0-4.07-3.31-7.38-7.38-7.38s-7.38,3.31-7.38,7.38c0,2.8,1.58,5.33,4.03,6.57c-0.51,0.19-1.01,0.41-1.49,0.68  c-3.42,1.88-5.54,5.47-5.54,9.37v3.38c0,0.21,0.17,0.38,0.38,0.38h20.64C28.53,31.88,28.69,31.71,28.69,31.5z"></path></svg>