<svg xmlns="http://www.w3.org/2000/svg" xmlns:xlink="http://www.w3.org/1999/xlink" version="1.1" x="0px" y="0px" viewBox="0 0 36 36" style="enable-background:new 0 0 36 36;" xml:space="preserve"><path d="M13.63,26.63V22c0-1.11-0.32-2.18-0.94-3.11c0,0,0,0,0,0c-0.65-0.98-1.61-1.74-2.71-2.16c-0.13-0.05-0.23-0.17-0.24-0.31  s0.05-0.28,0.17-0.36c1.08-0.67,1.72-1.82,1.72-3.07c0-2-1.63-3.63-3.63-3.63S4.38,11,4.38,13c0,1.25,0.64,2.4,1.72,3.07  c0.12,0.08,0.19,0.21,0.17,0.36s-0.11,0.26-0.24,0.31c-1.1,0.41-2.06,1.18-2.71,2.16c0,0,0,0,0,0c-0.61,0.92-0.94,2-0.94,3.11v4.63  H12H13.63z"></path><path d="M21.63,13c0-2-1.63-3.63-3.63-3.63S14.38,11,14.38,13c0,1.25,0.64,2.4,1.72,3.07c0.12,0.08,0.19,0.21,0.17,0.36  s-0.11,0.26-0.24,0.31c-1.03,0.39-1.93,1.09-2.58,1.98c0.6,0.99,0.93,2.12,0.93,3.28v4.63H22h1.63V22c0-1.11-0.32-2.18-0.94-3.11  c0,0,0,0,0,0c-0.65-0.98-1.61-1.74-2.71-2.16c-0.13-0.05-0.23-0.17-0.24-0.31c-0.01-0.14,0.05-0.28,0.17-0.36  C20.98,15.4,21.63,14.25,21.63,13z"></path><path d="M32.69,18.89c-0.65-0.98-1.61-1.74-2.71-2.16c-0.13-0.05-0.23-0.17-0.24-0.31c-0.01-0.14,0.05-0.28,0.17-0.36  c1.08-0.67,1.72-1.82,1.72-3.07c0-2-1.63-3.63-3.63-3.63S24.38,11,24.38,13c0,1.25,0.64,2.4,1.72,3.07  c0.12,0.08,0.19,0.21,0.17,0.36c-0.01,0.14-0.11,0.26-0.24,0.31c-1.03,0.39-1.93,1.09-2.58,1.98c0.6,0.99,0.93,2.12,0.93,3.28v4.63  H32h1.63V22C33.63,20.89,33.3,19.82,32.69,18.89C32.69,18.89,32.69,18.89,32.69,18.89z"></path></svg>