<svg xmlns="http://www.w3.org/2000/svg" xmlns:xlink="http://www.w3.org/1999/xlink" xml:space="preserve" version="1.0" style="shape-rendering:geometricPrecision;text-rendering:geometricPrecision;image-rendering:optimizeQuality;" viewBox="0 0 100000 100000" x="0px" y="0px" fill-rule="evenodd" clip-rule="evenodd"><defs><style type="text/css">
   
    .fil0 {fill:black;fill-rule:nonzero}
   
  </style></defs><g><path class="fil0" d="M26684 79897l23316 -18241 23315 18241c663,517 1618,29 1609,-793l-91 -9756c-2,-316 -152,-595 -384,-776l-23782 -18607c-387,-302 -1012,-290 -1382,36l-23593 18457c-245,192 -376,474 -383,762l-234 9868c-20,847 958,1320 1609,809z"></path><path class="fil0" d="M26684 64969l23316 -18241 23315 18241c663,517 1618,29 1609,-793l-91 -9756c-2,-316 -152,-596 -384,-776l-23782 -18608c-387,-301 -1012,-289 -1382,37l-23593 18457c-245,192 -376,474 -383,762l-234 9868c-20,847 958,1320 1609,809z"></path><path class="fil0" d="M26684 50041l23316 -18241 23315 18241c663,516 1618,29 1609,-793l-91 -9756c-2,-316 -152,-596 -384,-776l-23782 -18608c-387,-301 -1012,-289 -1382,37l-23593 18457c-245,192 -376,474 -383,762l-234 9868c-20,847 958,1320 1609,809z"></path></g></svg>