<?xml version="1.0" encoding="UTF-8" standalone="no"?>
<svg
   xmlns="http://www.w3.org/2000/svg"
   xml:space="preserve"
   enable-background="new 0 0 46 46"
   viewBox="0 0 46 46"
   y="0px"
   x="0px"
   version="1.1"
   width="100"
   height="100"
   style="fill:#008000">
    <path
     d="m 18.32,36.534 c -0.531,-4.295 -4.94,-4.156 -4.94,-4.156 0,0 0.618,4.368 4.94,4.156 z" />
    <path
     d="m 12.783,37.928 c 0,0 2.78,3.426 6.375,1.016 -2.668,-3.408 -6.375,-1.016 -6.375,-1.016 z" />
    <path
     d="m 11.962,34.46 c 0.677,-4.274 -3.6,-5.359 -3.6,-5.359 0,0 -0.613,4.369 3.6,5.359 z" />
    <path
     d="m 6.786,35.191 c 0,0 2.145,3.855 6.104,2.105 -2.039,-3.817 -6.104,-2.105 -6.104,-2.105 z" />
    <path
     d="m 3.501,28.419 c 0,0 0.052,4.411 4.366,4.755 0.024,-4.327 -4.366,-4.755 -4.366,-4.755 z" />
    <path
     d="m 7.173,28.419 c 3.036,-2.738 0.541,-6.074 0.541,-6.074 0,0 -3.047,2.843 -0.541,6.074 z" />
    <path
     d="m 4.826,27.131 c 1.817,-3.662 -1.729,-5.848 -1.729,-5.848 0,0 -1.787,3.765 1.729,5.848 z" />
    <path
     d="m 4.642,14.125 c 0,0 -2.458,3.364 0.608,6.067 2.468,-3.258 -0.608,-6.067 -0.608,-6.067 z" />
    <path
     d="m 9.672,15.268 c 0,0 -3.865,1.587 -2.66,5.505 3.819,-1.492 2.66,-5.505 2.66,-5.505 z" />
    <path
     d="m 8.755,8.896 c 0,0 -3.712,1.918 -2.171,5.716 3.674,-1.817 2.171,-5.716 2.171,-5.716 z" />
    <path
     d="m 14.413,10.279 c 0,0 -4.18,-0.209 -4.756,3.856 4.095,0.276 4.756,-3.856 4.756,-3.856 z" />
    <path
     d="m 14.423,5.15 c 0,0 -4.129,0.684 -3.831,4.777 4.062,-0.599 3.831,-4.777 3.831,-4.777 z" />
    <path
     d="m 14.193,9.221 c 4.042,0.721 5.149,-3.314 5.149,-3.314 0,0 -4.131,-0.664 -5.149,3.314 z" />
    <path
     d="m 27.679,36.534 c 4.323,0.212 4.94,-4.156 4.94,-4.156 0,0 -4.409,-0.139 -4.94,4.156 z" />
    <path
     d="m 26.841,38.943 c 3.595,2.41 6.375,-1.016 6.375,-1.016 0,0 -3.707,-2.391 -6.375,1.016 z" />
    <path
     d="m 34.038,34.46 c 4.213,-0.99 3.599,-5.359 3.599,-5.359 0,0 -4.276,1.085 -3.599,5.359 z" />
    <path
     d="m 33.11,37.297 c 3.958,1.75 6.104,-2.105 6.104,-2.105 0,0 -4.066,-1.713 -6.104,2.105 z" />
    <path
     d="m 38.133,33.174 c 4.313,-0.344 4.366,-4.755 4.366,-4.755 0,0 -4.391,0.428 -4.366,4.755 z" />
    <path
     d="m 38.286,22.345 c 0,0 -2.495,3.336 0.541,6.074 2.505,-3.231 -0.541,-6.074 -0.541,-6.074 z" />
    <path
     d="m 41.174,27.131 c 3.517,-2.083 1.729,-5.848 1.729,-5.848 0,0 -3.547,2.186 -1.729,5.848 z" />
    <path
     d="m 41.358,14.125 c 0,0 -3.077,2.809 -0.608,6.067 3.066,-2.703 0.608,-6.067 0.608,-6.067 z" />
    <path
     d="m 38.987,20.772 c 1.205,-3.918 -2.66,-5.505 -2.66,-5.505 0,0 -1.158,4.014 2.66,5.505 z" />
    <path
     d="m 39.416,14.612 c 1.541,-3.798 -2.172,-5.716 -2.172,-5.716 0,0 -1.502,3.899 2.172,5.716 z" />
    <path
     d="m 31.586,10.279 c 0,0 0.661,4.132 4.757,3.856 -0.576,-4.065 -4.757,-3.856 -4.757,-3.856 z" />
    <path
     d="m 35.406,9.928 c 0.299,-4.094 -3.83,-4.777 -3.83,-4.777 0,0 -0.231,4.177 3.83,4.777 z" />
    <path
     d="M 31.806,9.221 C 30.789,5.243 26.657,5.907 26.657,5.907 c 0,0 1.108,4.034 5.149,3.314 z" />
    <circle
     r="2.681"
     cy="38.168999"
     cx="23" />
    </svg>
