<?xml version="1.0" encoding="UTF-8" standalone="no"?>
<svg
   xmlns="http://www.w3.org/2000/svg"
   id="svg14"
   y="0px"
   x="0px"
   viewBox="0 0 2540 2540"
   version="1.1"
   width="100"
   height="100"
   style="fill:#000080">
  <path d="m 1044,404 c 63,-19 126,-31 191,-36 12,-1 24,1 34,8 23,16 29,48 13,71 -88,126 -138,274 -144,426 -6,147 28,298 107,435 79,137 192,241 323,309 134,71 287,102 440,89 11,-1 23,2 33,8 23,16 29,47 14,71 -38,56 -79,105 -127,149 -48,43 -102,81 -164,117 -216,125 -462,151 -685,91 -224,-60 -425,-205 -549,-421 v -1 C 405,1504 379,1258 439,1035 499,811 644,610 860,486 h 1 c 60,-35 121,-62 183,-82 z"/>
  <path d="m 1663,997 39,127 126,38 c 14,4 21,19 17,32 -2,8 -9,14 -17,17 l -126,39 -39,126 c -4,13 -18,21 -31,17 -9,-3 -15,-9 -17,-17 l -39,-126 -126,-39 c -14,-4 -21,-19 -17,-32 3,-8 9,-14 17,-17 l 126,-38 39,-127 c 4,-13 18,-21 32,-17 8,3 14,9 16,17 z"/>
  <path d="m 1930,447 43,139 139,43 c 15,4 23,20 18,35 -2,9 -10,16 -18,18 l -139,43 -43,139 c -5,15 -20,23 -35,19 -9,-3 -16,-10 -19,-19 l -42,-139 -140,-43 c -15,-4 -23,-20 -18,-35 3,-9 10,-16 18,-18 l 140,-43 42,-139 c 5,-15 21,-23 35,-19 9,3 16,10 19,19 z"/>
</svg>
