<svg xmlns="http://www.w3.org/2000/svg" xmlns:xlink="http://www.w3.org/1999/xlink" version="1.1" x="0px" y="0px" viewBox="0 0 100 100" enable-background="new 0 0 100 100" xml:space="preserve"><path d="M67.98,67.067h-35.2c-1.085,0-1.966,0.879-1.966,1.967c0,1.085,0.881,1.965,1.966,1.965h35.2  c1.086,0,1.965-0.88,1.965-1.965C69.946,67.946,69.067,67.067,67.98,67.067z M23.597,58.623h49.196c1.085,0,1.965-0.88,1.965-1.965  c0-1.087-0.88-1.967-1.965-1.967H23.597c-1.085,0-1.966,0.88-1.966,1.967C21.631,57.743,22.511,58.623,23.597,58.623z M75.224,60.88  H19.73c-1.085,0-1.966,0.88-1.966,1.966s0.88,1.966,1.966,1.966h55.493c1.085,0,1.966-0.88,1.966-1.966S76.309,60.88,75.224,60.88z   M62.938,47.426c-0.303-0.09-0.612-0.156-0.924-0.207c-0.069-0.012-0.138-0.021-0.207-0.031c-0.314-0.044-0.63-0.075-0.948-0.08  c-0.437-0.008-0.818-0.297-0.942-0.715c-0.145-0.489-0.329-0.959-0.529-1.42c-0.047-0.107-0.091-0.217-0.141-0.323  c-0.192-0.411-0.407-0.809-0.64-1.193c-0.09-0.147-0.187-0.292-0.283-0.437c-0.172-0.26-0.356-0.51-0.547-0.756  c-0.193-0.248-0.395-0.487-0.604-0.719c-0.157-0.175-0.317-0.346-0.483-0.51c-0.181-0.18-0.364-0.357-0.555-0.526  c-0.262-0.23-0.534-0.45-0.814-0.658c-0.201-0.149-0.41-0.288-0.62-0.426c-0.216-0.142-0.438-0.274-0.663-0.403  c-0.24-0.137-0.483-0.267-0.731-0.389c-0.322-0.155-0.648-0.301-0.984-0.43c-0.123-0.049-0.245-0.099-0.369-0.143  c-0.472-0.164-0.955-0.305-1.449-0.412c-0.883-0.198-1.792-0.311-2.721-0.311c-4.498,0-8.697,2.43-10.958,6.339  c-0.18,0.313-0.503,0.501-0.876,0.499c-0.021,0-0.112-0.004-0.133-0.006h-0.001c-4.767,0-8.7,3.626-9.191,8.265h41.485  C67.305,50.004,65.359,48.14,62.938,47.426z"></path></svg>